# xmcd
#
# Track frame offsets:
#	150
#	7695
#	26921
#	42013
#	62710
#	82869
#	101968
#	124938
#	141431
#	160812
#	194242
#	208870
#
# Disc length: 2842 seconds
#
# Revision: 0
# Processed by: cddbd v1.5.2PL0 Copyright (c) Steve Scherf et al.
# Submitted via: audiograbber 1.83.01
#
DISCID=a90b180c
DTITLE=Adgar - Tiempos de Cambio
DYEAR=2008
DGENRE=Heavy Metal
TTITLE0=Revolucion
TTITLE1=Rosa Con Espinas
TTITLE2=Has Cambiado
TTITLE3=Heavy Metal
TTITLE4=Eternamente Joven
TTITLE5=Esa Mirada Triste (Version 2008)
TTITLE6=Nostalgia
TTITLE7=Corazon Y Fe
TTITLE8=Vestido De Blanco
TTITLE9=Tu Cancion
TTITLE10=Sonador
TTITLE11=Tiempos De Esperanza
EXTD=
EXTT0=
EXTT1=
EXTT2=
EXTT3=
EXTT4=
EXTT5=
EXTT6=
EXTT7=
EXTT8=
EXTT9=
EXTT10=
EXTT11=
PLAYORDER=
